# xmcd CD database file
#
# Track frame offsets:
#	150
#	17422
#	32560
#	49176
#	67204
#	83932
#
# Disc length: 1259 seconds
#
# Revision: 0
# Processed by: cddbd v1.4PL0 Copyright (c) Steve Scherf et al.
# Submitted via: CDex 1.50
#
DISCID=4704e906
DTITLE=Miermeister - Colours in the dark
DYEAR=1997
DGENRE=Jazz
TTITLE0=Come on
TTITLE1=Don't turn around
TTITLE2=Colours in the dark
TTITLE3=The rage
TTITLE4=Universe
TTITLE5=Let it begin
EXTD=YEAR: 1997
EXTT0=
EXTT1=
EXTT2=
EXTT3=
EXTT4=
EXTT5=
PLAYORDER=
